# xmcd
#
# Track frame offsets: 
#        150
#        4935
#        19057
#        29872
#        43675
#        69095
#        94612
#        115084
#        143399
#        148432
#        179172
#        189901
#        205849
#        215209
#        229932
#        260880
#        272685
#        293624
#        312074
#
# Disc length: 4309 seconds
#
# Revision: 3
# Processed by: cddbd v1.5.2PL0 Copyright (c) Steve Scherf et al.
# Submitted via: ExactAudioCopy v0.99pb3
#
DISCID=2110d313
DTITLE=Crazy World Of Arthur Brown - Strangelands (1969-70)
DYEAR=1988
DGENRE=Proto-Prog
TTITLE0=Life Jacket
TTITLE1=Purple Airport Of Love
TTITLE2=All Over The Country
TTITLE3=The Lord Doesn't Want You
TTITLE4=The Sound Of The City
TTITLE5=All Forms And Distinctions
TTITLE6=Beyond The See
TTITLE7=Planets Of The Universe
TTITLE8=Twisted Wreckage
TTITLE9=Hold On Cosmos
TTITLE10=Endless Sleep
TTITLE11=Excitation Wavelength
TTITLE12=Litmus Transformation
TTITLE13=Opus Pocus
TTITLE14=Crytallized Petard
TTITLE15=Kinesis
TTITLE16=But That Was Then That Was But
TTITLE17=High Tide Play Rustic Hinge
TTITLE18=Macedonia
EXTD=This album is supposedly the second album of The Crazy World Of A
EXTD=rthur Brown (recorded in the late 60's or early 70's but \nnot re
EXTD=leased befotre 88]\nStudio Album, released in 1988\nSongs - Track
EXTD=s Listing \nPART ONE: THE COUNTRY\n1. Life Jacket (2:03]\n2. Purp
EXTD=le Airport Of Love (3:08]\n3. All Over The Country (2:24]\n4. The
EXTD=Lord Doesnt Want You (3:03]\nPART TWO: THE CITY\n5. The Sound Of
EXTD=The City (5:39]\nPART THREE: THE COSMOS\n6. All Forms And Distin
EXTD=ctions (5:40]\n7. Beyond The See (4:33]\n8. Planets Of The Univer
EXTD=se (6:18]\n9. Twisted Wreckage (1:05]\n10. Hold On Cosmos (6:49) 
EXTD=\nPART FOUR: THE AFTERLIFE\n11. Endless Sleep (2:23]\nRustic Hing
EXTD=es: REPLICAS\nOn The Lawn For 3\n12. a) Excitation Wavelength (3:
EXTD=32]\n13. b) Litmus Transformation (2:05]\n14. c) Opus Pocus (3:17
EXTD=]\n15. d) Crystallized Petard (6:53]\n16. e) Kinesis (2:37]\n17. 
EXTD=f) But That Was Then That Was But (4:39]\n18. High Tide Play Rust
EXTD=ic Hinge (4:06]\n19. Macedonia (2:28]\nTotal Time: 72:42\nLine-up
EXTD=Musicians \n- Android Funnel - guitar\n- Arthur Brown - vocals
EXTD=\n- Dennis Taylor - bass\n- Drachen Theaker - drums\n- George Kah
EXTD=n - saxophone \n- Jonah Mitchell - organ \nReleases information \n
EXTD=LP/CD Reckless Records CDREC 2 (1988)
EXTT0=
EXTT1=
EXTT2=
EXTT3=
EXTT4=
EXTT5=
EXTT6=
EXTT7=
EXTT8=
EXTT9=
EXTT10=
EXTT11=
EXTT12=
EXTT13=
EXTT14=
EXTT15=
EXTT16=
EXTT17=
EXTT18=
PLAYORDER=
